<?xml version="1.0" encoding="UTF-8"?>
<svg width="14px" height="14px" viewBox="0 0 14 14" version="1.1" xmlns="http://www.w3.org/2000/svg" xmlns:xlink="http://www.w3.org/1999/xlink">
    <title>清除备份</title>
    <g id="移动端" stroke="none" stroke-width="1" fill="none" fill-rule="evenodd">
        <g id="首页/轨迹分析（重点人员状态）" transform="translate(-315.000000, -653.000000)" fill-rule="nonzero">
            <g id="清除备份" transform="translate(315.000000, 653.000000)">
                <rect id="矩形" fill="#000000" opacity="0" x="0.0136585366" y="0.0136585366" width="13.9863415" height="13.9863415"></rect>
                <path d="M11.9387324,2.0632806 C9.1903755,-0.68507626 4.76505513,-0.68507626 2.0632806,2.0632806 C-0.68507626,4.81163745 -0.68507626,9.23695782 2.0632806,11.9387324 C4.81163745,14.6870892 9.23695782,14.6870892 11.9387324,11.9387324 C14.6870892,9.1903755 14.6870892,4.81163746 11.9387324,2.0632806 Z M10.3083512,10.2617689 L10.2617689,10.3083512 C10.0754396,10.4946805 9.84252798,10.4946805 9.65619869,10.3083512 L7.00100648,7.65315895 L4.34581426,10.3083512 C4.15948498,10.4946805 3.92657339,10.4946805 3.74024411,10.3083512 L3.69366178,10.2617689 C3.5073325,10.0754396 3.5073325,9.84252798 3.69366178,9.65619869 L6.348854,7.00100648 L3.69366178,4.34581426 C3.5073325,4.15948498 3.5073325,3.87999106 3.69366178,3.74024411 C3.87999106,3.55391482 4.2060673,3.55391482 4.39239658,3.74024411 L7.00100648,6.348854 L9.65619869,3.69366178 C9.84252797,3.5073325 10.0754396,3.5073325 10.2617689,3.69366178 C10.4480981,3.87999106 10.4480981,4.2060673 10.2617689,4.39239658 L7.65315895,7.00100648 L10.3083512,9.65619869 C10.4946805,9.84252797 10.4946805,10.1220219 10.3083512,10.2617689 L10.3083512,10.2617689 Z" id="形状" fill="#A1A1A4"></path>
            </g>
        </g>
    </g>
</svg>