<?xml version="1.0" encoding="UTF-8"?>
<svg width="24px" height="24px" viewBox="0 0 24 24" version="1.1" xmlns="http://www.w3.org/2000/svg" xmlns:xlink="http://www.w3.org/1999/xlink">
    <title>下拉2</title>
    <g id="移动端" stroke="none" stroke-width="1" fill="none" fill-rule="evenodd">
        <g id="首页/轨迹分析（重点人员状态）" transform="translate(-178.000000, -523.000000)" fill-rule="nonzero">
            <g id="下拉2" transform="translate(178.000000, 523.000000)">
                <rect id="矩形" fill="#A1A1A4" opacity="0" x="0" y="0" width="24" height="24"></rect>
                <path d="M12.0445313,17.6671875 C11.94375,17.6671875 11.8453125,17.6414062 11.7539062,17.5898438 L2.7140625,12.440625 C2.4328125,12.28125 2.334375,11.9226562 2.49609375,11.6414062 C2.65546875,11.3601562 3.0140625,11.2617187 3.2953125,11.4234375 L12.0421875,16.40625 L20.7046875,11.4234375 C20.9859375,11.2617187 21.3445313,11.3578125 21.5039063,11.6390625 C21.6632813,11.9203125 21.5695313,12.2789062 21.2882812,12.4382812 L12.3351563,17.5875 C12.2460938,17.6414062 12.1453125,17.6671875 12.0445313,17.6671875 L12.0445313,17.6671875 Z M12.0445313,12.6375 C11.94375,12.6375 11.8453125,12.6117188 11.7539062,12.5601563 L2.7140625,7.4109375 C2.4328125,7.2515625 2.334375,6.89296875 2.49609375,6.61171875 C2.65546875,6.33046875 3.0140625,6.23203125 3.2953125,6.39375 L12.0445313,11.3765625 L20.7070312,6.39375 C20.9882812,6.23203125 21.346875,6.328125 21.50625,6.609375 C21.6679688,6.890625 21.571875,7.24921875 21.290625,7.40859375 L12.3375,12.5578125 C12.2460938,12.609375 12.1453125,12.6375 12.0445313,12.6375 L12.0445313,12.6375 Z" id="形状" fill="#7E7E83"></path>
            </g>
        </g>
    </g>
</svg>