<?xml version="1.0" encoding="UTF-8"?>
<svg width="22px" height="22px" viewBox="0 0 22 22" version="1.1" xmlns="http://www.w3.org/2000/svg" xmlns:xlink="http://www.w3.org/1999/xlink">
    <title>首页-填充</title>
    <defs>
        <linearGradient x1="-1.11022302e-14%" y1="50%" x2="100%" y2="50%" id="linearGradient-1">
            <stop stop-color="#E4E4E4" offset="0%"></stop>
            <stop stop-color="#C4C4C4" offset="100%"></stop>
        </linearGradient>
    </defs>
    <g id="移动端" stroke="none" stroke-width="1" fill="none" fill-rule="evenodd">
        <g id="首页" transform="translate(-41.000000, -670.000000)">
            <g id="编组-4备份" transform="translate(40.000000, 670.000000)">
                <g id="首页-填充" transform="translate(1.000000, 0.000000)">
                    <rect id="矩形" fill="#000000" fill-rule="nonzero" opacity="0" x="0" y="0" width="22" height="22"></rect>
                    <path d="M19.9979942,10.008747 L11.72966,2.31727329 C11.2681716,1.89424224 10.5759389,1.89424224 10.1529079,2.31727329 L1.88457368,10.008747 C1.65382947,10.2394912 1.5,10.5471501 1.5,10.8548091 L1.5,19.3923448 C1.5,20.0461201 2.03840316,20.5845233 2.69217842,20.5845233 L8.46078367,20.5845233 L8.46078367,14.7005459 C8.46078367,13.354538 9.57604736,12.2392743 10.9220552,12.2392743 C12.2680631,12.2392743 13.3833268,13.354538 13.3833268,14.7005459 L13.3833268,20.6229806 L19.1519321,20.6229806 C19.8057073,20.6229806 20.3441105,20.0845775 20.3441105,19.4308022 L20.3441105,10.8548091 C20.3825679,10.5471501 20.2287384,10.2394912 19.9979942,10.008747 Z" id="路径" fill="url(#linearGradient-1)"></path>
                </g>
            </g>
        </g>
    </g>
</svg>