<?xml version="1.0" encoding="UTF-8"?>
<svg width="35px" height="35px" viewBox="0 0 35 35" version="1.1" xmlns="http://www.w3.org/2000/svg" xmlns:xlink="http://www.w3.org/1999/xlink">
    <title>轨迹</title>
    <g id="移动端" stroke="none" stroke-width="1" fill="none" fill-rule="evenodd">
        <g id="首页" transform="translate(-50.000000, -201.000000)">
            <g id="编组" transform="translate(15.000000, 181.000000)">
                <g id="轨迹" transform="translate(35.000000, 20.000000)">
                    <rect id="矩形" fill="#000000" fill-rule="nonzero" opacity="0" x="0" y="0" width="35" height="35"></rect>
                    <path d="M17.6937716,24.633218 L16.4584775,23.8823529 C16.0709343,23.6643599 7.20588234,18.2387543 7.20588234,10.5121107 C7.20588234,4.71312084 11.9068925,0.0121107178 17.7058823,0.0121107178 C23.5048722,0.0121107178 28.2058823,4.71312084 28.2058823,10.5121107 C28.2058823,18.2629758 19.3408304,23.6643599 18.9532872,23.8823529 L17.6937716,24.633218 Z M17.6937716,4.84429066 C14.5824106,4.8575589 12.0634412,7.37652829 12.050173,10.4878893 C12.050173,14.1211073 15.7318339,17.366782 17.7179931,18.8442907 C19.9948097,17.1487889 23.3615917,14 23.3615917,10.4878893 C23.3482549,7.3671019 20.8145875,4.84429066 17.6937716,4.84429066 L17.6937716,4.84429066 Z" id="形状" fill="#FFF7EF"></path>
                    <path d="M14.4723183,10.4878893 C14.4723183,11.6388037 15.0863238,12.7022925 16.083045,13.2777497 C17.0797661,13.853207 18.3077772,13.853207 19.3044983,13.2777497 C20.3012194,12.7022925 20.9152249,11.6388037 20.9152249,10.4878893 C20.9152249,8.70872976 19.4729311,7.266436 17.6937716,7.266436 C15.9146121,7.266436 14.4723183,8.70872976 14.4723183,10.4878893 L14.4723183,10.4878893 Z" id="路径" fill="#FFF7EF"></path>
                    <polygon id="路径" fill="#FFFFFF" opacity="0.797199563" points="18 35 24.6695502 31.6574394 0.060553623 31.6574394 14.4723183 25.0384681 20.9152249 25.0384681 11.1055363 29.2352941 34.9394464 29.2352941 23.434256 35"></polygon>
                    <polygon id="路径-2" fill="#FB963F" opacity="0.303867475" points="0.060553623 31.6574394 14.4723183 25.0384681 20.9152249 25.0384681"></polygon>
                </g>
            </g>
        </g>
    </g>
</svg>