<?xml version="1.0" encoding="UTF-8"?>
<svg width="35px" height="35px" viewBox="0 0 35 35" version="1.1" xmlns="http://www.w3.org/2000/svg" xmlns:xlink="http://www.w3.org/1999/xlink">
    <title>编组 3备份</title>
    <g id="移动端" stroke="none" stroke-width="1" fill="none" fill-rule="evenodd">
        <g id="首页" transform="translate(-171.000000, -201.000000)">
            <g id="编组-5" transform="translate(136.000000, 181.000000)">
                <g id="编组-3备份" transform="translate(35.000000, 20.000000)">
                    <rect id="矩形" fill="#D8D8D8" opacity="0" x="0" y="0" width="35" height="35"></rect>
                    <g id="编组-9备份" transform="translate(2.000000, 3.000000)">
                        <path d="M15.0929293,0 C21.145747,-1.11188458e-15 26.0525253,4.90677825 26.0525253,10.959596 L26.0525253,21.9191919 L4.13333333,21.9191919 L4.13333333,10.959596 C4.13333333,4.90677825 9.04011158,1.11188458e-15 15.0929293,0 Z M17.0458667,5.25594667 L11.3650133,11.3352533 C11.1682667,11.54688 11.3170667,11.8924267 11.6064,11.8924267 L13.8632,11.8924267 C14.06656,11.8924267 14.2219733,12.0759467 14.1889067,12.276 L13.3853867,17.1979733 C13.33248,17.5203733 13.7309333,17.7154667 13.9541333,17.4773867 L19.6349867,11.39808 C19.8333867,11.1864533 19.6829333,10.8409067 19.3936,10.8409067 L17.1368,10.8409067 C16.93344,10.8409067 16.7780267,10.6573867 16.8110933,10.4573333 L17.6146133,5.53536 C17.66752,5.21296 17.2690667,5.01786667 17.0458667,5.25594667 Z" id="形状结合" fill="#FFFFFF"></path>
                        <g id="闪聘" transform="translate(10.333333, 5.166667)"></g>
                        <path d="M4.38383838,23.0148363 L26.3030303,23.0148363 L29.8221334,25.7549625 C30.3677813,26.1798276 30.6868687,26.832692 30.6868687,27.5242424 C30.6868687,28.1295242 30.1961909,28.620202 29.5909091,28.620202 L1.0959596,28.620202 C0.490677825,28.620202 7.41256384e-17,28.1295242 0,27.5242424 C2.22419588e-16,26.832692 0.319087366,26.1798276 0.864735287,25.7549625 L4.38383838,23.0148363 L4.38383838,23.0148363 Z" id="矩形" fill="#FFFFFF" opacity="0.699482278"></path>
                        <path d="M4.38383838,23.0148363 L26.3030303,23.0148363 L29.8221334,25.7549625 C30.3677813,26.1798276 30.6868687,26.832692 30.6868687,27.5242424 C30.6868687,28.014126 30.2897396,28.4112551 29.799856,28.4112551 C29.737718,28.4112551 29.675752,28.4047257 29.6149786,28.3917745 L4.38383838,23.0148363 L4.38383838,23.0148363 Z" id="矩形" fill="#EA4F66" opacity="0.297094009"></path>
                    </g>
                </g>
            </g>
        </g>
    </g>
</svg>