<?xml version="1.0" encoding="UTF-8"?>
<svg width="16px" height="16px" viewBox="0 0 16 16" version="1.1" xmlns="http://www.w3.org/2000/svg" xmlns:xlink="http://www.w3.org/1999/xlink">
    <title>部门名称</title>
    <g id="移动端" stroke="none" stroke-width="1" fill="none" fill-rule="evenodd">
        <g id="首页/轨迹分析（重点人员状态）" transform="translate(-98.000000, -325.000000)" fill-rule="nonzero">
            <g id="编组-4" transform="translate(91.000000, 316.000000)">
                <g id="部门名称" transform="translate(7.000000, 9.000000)">
                    <rect id="矩形" fill="#000000" opacity="0" x="0" y="0" width="16" height="16"></rect>
                    <path d="M8,8.23125 C7.8328125,8.23125 7.6640625,8.1890625 7.5125,8.103125 L2.8546875,5.4875 C2.540625,5.3109375 2.346875,4.9796875 2.346875,4.6203125 C2.346875,4.2609375 2.540625,3.928125 2.8546875,3.753125 L7.5125,1.1375 C7.815625,0.9671875 8.184375,0.9671875 8.4875,1.1375 L13.1453125,3.753125 C13.459375,3.9296875 13.653125,4.2609375 13.653125,4.6203125 C13.653125,4.9796875 13.459375,5.3125 13.1453125,5.4875 L8.4875,8.103125 C8.3359375,8.1890625 8.1671875,8.23125 8,8.23125 L8,8.23125 Z M5.375,4.6203125 L8,6.09375 L10.625,4.6203125 L8,3.146875 L5.375,4.6203125 Z" id="形状" fill="#FFFFFF"></path>
                    <path d="M8,11.6140625 C7.8328125,11.6140625 7.6640625,11.571875 7.5125,11.4859375 L2.8546875,8.871875 C2.375,8.603125 2.2046875,7.996875 2.4734375,7.5171875 C2.7421875,7.0375 3.3484375,6.8671875 3.828125,7.1359375 L8,9.478125 L12.1703125,7.1359375 C12.65,6.8671875 13.25625,7.0375 13.525,7.5171875 C13.79375,7.996875 13.6234375,8.603125 13.14375,8.871875 L8.4875,11.4859375 C8.3359375,11.571875 8.1671875,11.6140625 8,11.6140625 L8,11.6140625 Z" id="路径" fill="#FFFFFF"></path>
                    <path d="M8,14.9890625 C7.8328125,14.9890625 7.6640625,14.946875 7.5125,14.8609375 L2.8546875,12.246875 C2.375,11.978125 2.2046875,11.371875 2.4734375,10.8921875 C2.7421875,10.4125 3.3484375,10.2421875 3.828125,10.5109375 L8,12.853125 L12.1703125,10.5109375 C12.65,10.2421875 13.25625,10.4125 13.525,10.8921875 C13.79375,11.371875 13.6234375,11.978125 13.14375,12.246875 L8.4875,14.8625 C8.3359375,14.946875 8.1671875,14.9890625 8,14.9890625 Z" id="路径" fill="#FFFFFF"></path>
                </g>
            </g>
        </g>
    </g>
</svg>