<?xml version="1.0" encoding="UTF-8"?>
<svg width="22px" height="22px" viewBox="0 0 22 22" version="1.1" xmlns="http://www.w3.org/2000/svg" xmlns:xlink="http://www.w3.org/1999/xlink">
    <title>对话备份 2</title>
    <defs>
        <linearGradient x1="-1.11022302e-14%" y1="50%" x2="100%" y2="50%" id="linearGradient-1">
            <stop stop-color="#E4E4E4" offset="0%"></stop>
            <stop stop-color="#C4C4C4" offset="100%"></stop>
        </linearGradient>
    </defs>
    <g id="移动端" stroke="none" stroke-width="1" fill="none" fill-rule="evenodd">
        <g id="首页" transform="translate(-177.000000, -737.000000)">
            <g id="编组-6" transform="translate(164.000000, 735.000000)">
                <g id="对话备份-2" transform="translate(13.000000, 2.000000)">
                    <rect id="矩形" fill="#000000" fill-rule="nonzero" opacity="0" x="0" y="0" width="22" height="22"></rect>
                    <path d="M10.5926286,1.00062857 C11.9272952,0.985961905 13.1812952,1.2279619 14.3546286,1.72662857 C15.5279619,2.22529524 16.5582952,2.90362857 17.4456286,3.76162857 C18.3329619,4.61962857 19.0332952,5.63162857 19.5466286,6.79762857 C20.0599619,7.96362857 20.3239619,9.2139619 20.3386286,10.5486286 C20.3532952,11.8099619 20.1369619,12.9979619 19.6896286,14.1126286 C19.2422952,15.2272952 18.6189619,16.2136286 17.8196286,17.0716286 C17.0202952,17.9296286 16.0816286,18.6372952 15.0036286,19.1946286 C13.9256286,19.7519619 12.7632952,20.0966286 11.5166286,20.2286286 C11.1939619,20.2726286 10.8492952,20.3092952 10.4826286,20.3386286 C10.1159619,20.3679619 9.7089619,20.3899619 9.26162857,20.4046286 C8.81429524,20.4192952 8.31562857,20.4192952 7.76562857,20.4046286 C7.21562857,20.3899619 6.5959619,20.3459619 5.90662857,20.2726286 C4.38129524,20.1259619 3.24829524,19.9352952 2.50762857,19.7006286 C1.7669619,19.4659619 1.4699619,19.3339619 1.61662857,19.3046286 C2.3939619,19.1726286 3.06129524,18.9599619 3.61862857,18.6666286 C3.9119619,18.5052952 4.0329619,18.2742952 3.98162857,17.9736286 C3.93029524,17.6729619 3.78729524,17.3906286 3.55262857,17.1266286 C2.80462857,16.3052952 2.19962857,15.3482952 1.73762857,14.2556286 C1.27562857,13.1629619 1.0299619,11.9859619 1.00062857,10.7246286 C0.985961905,9.3899619 1.2279619,8.1359619 1.72662857,6.96262857 C2.22529524,5.78929524 2.90729524,4.76262857 3.77262857,3.88262857 C4.6379619,3.00262857 5.65729524,2.3059619 6.83062857,1.79262857 C8.0039619,1.27929524 9.2579619,1.01529524 10.5926286,1.00062857 Z M6.375,9 C5.61560847,9 5,9.61560847 5,10.375 C5,11.1343915 5.61560847,11.75 6.375,11.75 C7.13439153,11.75 7.75,11.1343915 7.75,10.375 C7.75,9.61560847 7.13439153,9 6.375,9 Z M10.875,9 C10.1156085,9 9.5,9.61560847 9.5,10.375 C9.5,11.1343915 10.1156085,11.75 10.875,11.75 C11.6343915,11.75 12.25,11.1343915 12.25,10.375 C12.25,9.61560847 11.6343915,9 10.875,9 Z M15.375,9 C14.6156085,9 14,9.61560847 14,10.375 C14,11.1343915 14.6156085,11.75 15.375,11.75 C16.1343915,11.75 16.75,11.1343915 16.75,10.375 C16.75,9.61560847 16.1343915,9 15.375,9 Z" id="形状结合" fill="url(#linearGradient-1)"></path>
                </g>
            </g>
        </g>
    </g>
</svg>