<?xml version="1.0" encoding="UTF-8"?>
<svg width="16px" height="16px" viewBox="0 0 16 16" version="1.1" xmlns="http://www.w3.org/2000/svg" xmlns:xlink="http://www.w3.org/1999/xlink">
    <title>搜索</title>
    <g id="移动端" stroke="none" stroke-width="1" fill="none" fill-rule="evenodd">
        <g id="首页/预警结果" transform="translate(-25.000000, -280.000000)" fill-rule="nonzero">
            <g id="编组-9" transform="translate(15.000000, 270.000000)">
                <g id="搜索" transform="translate(10.000000, 10.000000)">
                    <rect id="矩形" fill="#000000" opacity="0" x="0" y="0" width="16" height="16"></rect>
                    <path d="M11.1921711,12.6063847 C10.0235906,13.4815965 8.57233509,14 7,14 C3.13400675,14 0,10.8659932 0,7 C0,3.13400675 3.13400675,0 7,0 C10.8659932,0 14,3.13400675 14,7 C14,8.57233509 13.4815965,10.0235906 12.6063847,11.1921711 L14.781429,13.3672154 C15.1701559,13.7559424 15.1714215,14.3849276 14.7781746,14.7781746 C14.3876503,15.1686989 13.7488644,15.163078 13.3672154,14.781429 L11.1921711,12.6063847 Z M7,12 C9.76142375,12 12,9.76142375 12,7 C12,4.23857625 9.76142375,2 7,2 C4.23857625,2 2,4.23857625 2,7 C2,9.76142375 4.23857625,12 7,12 Z" id="形状" fill="#D2D2D2"></path>
                </g>
            </g>
        </g>
    </g>
</svg>