<?xml version="1.0" encoding="UTF-8"?>
<svg width="22px" height="22px" viewBox="0 0 22 22" version="1.1" xmlns="http://www.w3.org/2000/svg" xmlns:xlink="http://www.w3.org/1999/xlink">
    <title>我的小备份</title>
    <defs>
        <linearGradient x1="-1.11022302e-14%" y1="50%" x2="100%" y2="50%" id="linearGradient-1">
            <stop stop-color="#E4E4E4" offset="0%"></stop>
            <stop stop-color="#C4C4C4" offset="100%"></stop>
        </linearGradient>
    </defs>
    <g id="移动端" stroke="none" stroke-width="1" fill="none" fill-rule="evenodd">
        <g id="首页" transform="translate(-312.000000, -737.000000)">
            <g id="编组-7" transform="translate(311.000000, 737.000000)">
                <g id="我的小备份" transform="translate(1.000000, 0.000000)">
                    <rect id="矩形" fill="#000000" fill-rule="nonzero" opacity="0" x="0" y="0" width="22" height="22"></rect>
                    <path d="M11.0854809,14.2121016 C20.2488991,14.2121016 20.1580659,19.8850478 20.1580659,19.8850478 C20.2274295,20.4003197 19.8558391,20.8181524 19.327355,20.8181524 L2.84360674,20.8181524 C2.31512267,20.8181524 1.92288842,20.3945394 2.01289585,19.8850478 C2.01289585,19.8850478 1.92041113,14.2121016 11.0854809,14.2121016 Z M11.0830036,1 L16.8632981,1 L16.8632981,6.78029446 C16.8632981,9.97266295 14.2753721,12.5605889 11.0830036,12.5605889 C7.89063513,12.5605889 5.30270915,9.97266295 5.30270915,6.78029446 C5.30270915,3.58792598 7.89063513,1 11.0830036,1 Z" id="形状" fill="url(#linearGradient-1)"></path>
                </g>
            </g>
        </g>
    </g>
</svg>